# xmcd CD database file
#
# Track frame offsets:
#	150
#	14722
#	28235
#	40772
#	56817
#	69864
#
# Disc length: 1130 seconds
#
# Revision: 0
# Processed by: cddbd v1.5.2PL0 Copyright (c) Steve Scherf et al.
# Submitted via: CDex 1.70beta2
#
DISCID=4e046806
DTITLE=Pullman City Gang - Die erste Halbe
DYEAR=1997
DGENRE=Country
TTITLE0=Pullman City
TTITLE1=Offne's Fenster
TTITLE2=Du i glaub an di
TTITLE3=I fühl mi frei
TTITLE4=Komm her zu mir
TTITLE5=What a day
EXTD=YEAR: 1997
EXTT0=
EXTT1=
EXTT2=
EXTT3=
EXTT4=
EXTT5=
PLAYORDER=
